<svg xmlns="http://www.w3.org/2000/svg" xmlns:xlink="http://www.w3.org/1999/xlink" viewBox="0 0 50 50"><defs><style>.cls-1{fill:url(#linear-gradient);}.cls-2{fill:#fff;}</style><linearGradient id="linear-gradient" x1="-1487.04041" y1="-318.07949" x2="-1487.08835" y2="-318.03916" gradientTransform="translate(1153987 246839) scale(776)" gradientUnits="userSpaceOnUse"><stop offset="0" stop-color="#b6509e"/><stop offset="1" stop-color="#2ebac6"/></linearGradient></defs><g id="AAVE"><g id="b"><circle class="cls-1" cx="25" cy="25" r="25"/><path class="cls-2" d="M35.94072,34.96134,27.48711,14.5232A2.27157,2.27157,0,0,0,25.36727,12.951h-.74742A2.27158,2.27158,0,0,0,22.5,14.5232l-3.67912,8.90463H16.03737A1.52492,1.52492,0,0,0,14.5232,24.942v.01933a1.52916,1.52916,0,0,0,1.51417,1.51417h1.49485l-3.5116,8.48583a1.77262,1.77262,0,0,0-.10309.5799,1.62577,1.62577,0,0,0,.41237,1.14046,1.44719,1.44719,0,0,0,1.12113.4317,1.499,1.499,0,0,0,.86985-.28995,1.88267,1.88267,0,0,0,.60567-.76675l3.866-9.58763h2.68042a1.52491,1.52491,0,0,0,1.51417-1.51417v-.03866a1.52916,1.52916,0,0,0-1.51417-1.51418H22.04252l2.951-7.3518,8.04124,20a1.88265,1.88265,0,0,0,.60567.76675,1.51435,1.51435,0,0,0,.86985.28995,1.45659,1.45659,0,0,0,1.12113-.4317,1.59729,1.59729,0,0,0,.41238-1.14047A1.35156,1.35156,0,0,0,35.94072,34.96134Z"/></g></g></svg>