<svg xmlns="http://www.w3.org/2000/svg" viewBox="0 0 50 50"><defs><style>.cls-1{fill:#fff;}.cls-2{fill:#4a674e;}</style></defs><g id="ADDY"><circle class="cls-1" cx="25" cy="25" r="25"/><circle class="cls-1" cx="25" cy="25" r="22"/><path class="cls-2" d="M25,6A19,19,0,1,1,6,25,19.0215,19.0215,0,0,1,25,6m0-6A25,25,0,1,0,50,25,25,25,0,0,0,25,0Z"/><path class="cls-2" d="M12.12143,11.90736c3.04611.00041,9.53729,3.40821,16.05014,9.92107,7.78487,7.78485,10.14372,14.40633,9.93081,16.25574-.06143.00506-.13526.00848-.22267.00848-3.04633,0-9.538-3.40782-16.05128-9.92108-7.78487-7.78485-10.14373-14.40622-9.93082-16.25563.06169-.00511.13591-.00857.22382-.00858m-.00114-4A4.2553,4.2553,0,0,0,9,9c-3.31371,3.31371,1.16344,13.16344,10,22,6.86041,6.86043,14.33059,11.09264,18.87971,11.09264A4.2546,4.2546,0,0,0,41,41c3.31371-3.31371-1.16344-13.16344-10-22C24.13959,12.13959,16.66941,7.90679,12.12029,7.90736Z"/><path class="cls-2" d="M37.87991,11.90736h0c.08734,0,.16112.0034.22249.00845.21291,1.84941-2.14593,8.47091-9.9308,16.25576-6.51324,6.51326-13.00495,9.92108-16.05128,9.92108-.08741,0-.16124-.00342-.22266-.00847-.21291-1.84941,2.14593-8.4709,9.9308-16.25575,6.51315-6.51317,13.005-9.921,16.05148-9.92107m-.0002-4C33.33049,7.90746,25.85987,12.14013,19,19,10.16344,27.83656,5.68629,37.68629,9,41a4.25335,4.25335,0,0,0,3.12029,1.09264C16.66952,42.09264,24.14013,37.85988,31,31c8.83656-8.83656,13.31371-18.68629,10-22a4.25321,4.25321,0,0,0-3.12029-1.09264Z"/></g></svg>