<svg xmlns="http://www.w3.org/2000/svg" viewBox="0 0 50 50"><defs><style>.cls-1{fill:#f5ac37;}.cls-2{fill:#fefefd;}</style></defs><g id="DAI"><path class="cls-1" d="M25,0A25,25,0,1,1,0,25,24.99981,24.99981,0,0,1,25,0Z"/><path class="cls-2" d="M25.92138,26.76514H35.421c.2025,0,.29813,0,.31275-.2655a18.15839,18.15839,0,0,0,0-2.9059c0-.18788-.09337-.26551-.297-.26551H16.53091c-.234,0-.297.07763-.297.297v2.781c0,.35888,0,.35888.37463.35888Zm8.75147-6.68706a.30418.30418,0,0,0,0-.21826,6.17814,6.17814,0,0,0-.56476-.98438,7.97071,7.97071,0,0,0-1.15651-1.45352,3.83409,3.83409,0,0,0-.71888-.70313,11.2315,11.2315,0,0,0-4.68792-2.3749,11.65369,11.65369,0,0,0-2.65616-.28125H16.49829c-.234,0-.2655.09338-.2655.297V19.906c0,.234,0,.297.297.297H34.56035s.15637-.0315.18788-.12487h-.07538Zm0,9.93722a3.6464,3.6464,0,0,0-.79876,0H16.54667c-.234,0-.31276,0-.31276.31275v5.42256c0,.24975,0,.31275.31276.31275h8a3.9957,3.9957,0,0,0,1.13964-.07763,11.90919,11.90919,0,0,0,3.39191-.75038,6.20775,6.20775,0,0,0,1.13963-.531h.10913a10.1509,10.1509,0,0,0,4.35942-4.38867s.10912-.23625-.0135-.29812ZM13.094,38.87476V30.23468c0-.20363,0-.234-.24976-.234H9.45347c-.18788,0-.2655,0-.2655-.24976V26.782h3.62478c.20251,0,.28126,0,.28126-.2655V23.57911c0-.18787,0-.234-.24976-.234H9.45347c-.18788,0-.2655,0-.2655-.24975V20.34583c0-.17213,0-.21825.24975-.21825H12.797c.234,0,.297,0,.297-.297V11.40874c0-.24975,0-.31275.31275-.31275H25.12488a17.85347,17.85347,0,0,1,2.53127.28125,15.273,15.273,0,0,1,4.89043,1.81239,13.78229,13.78229,0,0,1,2.74953,2.12515,15.05669,15.05669,0,0,1,1.67176,2.07789,12.53228,12.53228,0,0,1,1.22064,2.39065.40686.40686,0,0,0,.46688.32851h2.79678c.35888,0,.35888,0,.37462.34425v2.56278c0,.24975-.09337.31275-.34425.31275H39.32589c-.21825,0-.28125,0-.2655.28125a15.96165,15.96165,0,0,1,0,2.85865c0,.26551,0,.297.29813.297h2.46715c.10912.14062,0,.28125,0,.423a3.1563,3.1563,0,0,1,0,.54563V29.6283c0,.2655-.07763.34425-.31276.34425H38.55976a.39092.39092,0,0,0-.45338.297,12.49435,12.49435,0,0,1-3.28166,4.78129A18.82,18.82,0,0,1,33.153,36.39412c-.62551.36-1.23414.73463-1.8754,1.03163a16.89369,16.89369,0,0,1-3.68779,1.17114,19.22619,19.22619,0,0,1-3.65628.297H13.0895v-.01576Z"/></g></svg>