<svg id="Layer_1" data-name="Layer 1" xmlns="http://www.w3.org/2000/svg" viewBox="0 0 50 50"><defs><style>.cls-1,.cls-2{fill:#ffa600;}.cls-2{fill-rule:evenodd;}</style></defs><path class="cls-1" d="M24.99995,50,3.26633,37.50626V12.49374L24.99995,0,46.73367,12.49374V37.50626ZM7.04392,35.32361l17.956,10.33623L42.95608,35.32361V14.67639L24.99995,4.34016,7.04392,14.67639Z"/><path class="cls-2" d="M25.9261,36.18091a14.21875,14.21875,0,0,0,4.46108-.70026,11.5822,11.5822,0,0,0,3.78433-1.97571V25.12682H30.46234v6.55243a8.44911,8.44911,0,0,1-4.33581,1.07544,8.17363,8.17363,0,0,1-3.93475-.95038,7.06123,7.06123,0,0,1-2.70671-2.651,7.377,7.377,0,0,1-.9774-3.77635,7.52388,7.52388,0,0,1,.9774-3.85151,6.60574,6.60574,0,0,1,2.70671-2.60091,8.19025,8.19025,0,0,1,3.9598-.92532,7.95675,7.95675,0,0,1,5.81449,2.40089l2.45608-2.40089a9.39312,9.39312,0,0,0-3.634-2.551,12.97125,12.97125,0,0,0-4.81193-.87532,12.21084,12.21084,0,0,0-5.83954,1.40051A10.86359,10.86359,0,0,0,16.0516,30.929a10.19732,10.19732,0,0,0,4.06,3.85141A12.25385,12.25385,0,0,0,25.9261,36.18091Z"/></svg>