<svg xmlns="http://www.w3.org/2000/svg" viewBox="0 0 50 50"><defs><style>.cls-1{fill:#8247e5;}.cls-2{fill:#fff;}</style></defs><g id="MATIC"><circle class="cls-1" cx="24.99474" cy="25" r="25"/><path class="cls-2" d="M33.76855,19.16914a2.26821,2.26821,0,0,0-2.1365,0l-4.98517,2.93768L23.2641,23.97626,18.368,26.914a2.26819,2.26819,0,0,1-2.13649,0l-3.8279-2.31454A2.1699,2.1699,0,0,1,11.33531,22.73v-4.451a2.19571,2.19571,0,0,1,1.06825-1.86944L16.23145,14.184a2.26815,2.26815,0,0,1,2.1365,0l3.8279,2.31454A2.16988,2.16988,0,0,1,23.2641,18.368v2.93769l3.38278-1.95846V16.32047A2.19569,2.19569,0,0,0,25.57863,14.451l-7.12166-4.184a2.26821,2.26821,0,0,0-2.1365,0l-7.2997,4.273a1.95822,1.95822,0,0,0-1.06825,1.78041v8.368a2.19571,2.19571,0,0,0,1.06825,1.86943l7.21068,4.184a2.26821,2.26821,0,0,0,2.1365,0l4.89615-2.84867,3.38278-1.95845L31.543,23.08605a2.26821,2.26821,0,0,1,2.1365,0l3.82789,2.22552A2.16987,2.16987,0,0,1,38.57567,27.181v4.451a2.19571,2.19571,0,0,1-1.06825,1.86943L33.76855,35.727a2.26821,2.26821,0,0,1-2.1365,0l-3.8279-2.22552a2.16989,2.16989,0,0,1-1.06825-1.86943V28.78338l-3.38278,1.95846v2.93768A2.19569,2.19569,0,0,0,24.42137,35.549l7.21068,4.184a2.26821,2.26821,0,0,0,2.1365,0l7.21068-4.184a2.16989,2.16989,0,0,0,1.06825-1.86944v-8.457a2.19571,2.19571,0,0,0-1.06825-1.86943Z"/></g></svg>