<svg xmlns="http://www.w3.org/2000/svg" xmlns:xlink="http://www.w3.org/1999/xlink" viewBox="0 0 50 50"><defs><style>.cls-1{fill:none;}.cls-2{clip-path:url(#clip-path);}.cls-3{fill:url(#linear-gradient);}.cls-4{fill:url(#linear-gradient-2);}.cls-5{fill:url(#linear-gradient-3);}</style><clipPath id="clip-path"><circle class="cls-1" cx="-40" cy="25" r="25"/></clipPath><linearGradient id="linear-gradient" x1="37.47591" y1="896.11612" x2="20.56226" y2="928.51257" gradientTransform="translate(0 -886)" gradientUnits="userSpaceOnUse"><stop offset="0" stop-color="#00ffa3"/><stop offset="1" stop-color="#dc1fff"/></linearGradient><linearGradient id="linear-gradient-2" x1="30.08099" y1="892.25536" x2="13.16733" y2="924.65181" xlink:href="#linear-gradient"/><linearGradient id="linear-gradient-3" x1="33.75476" y1="894.17337" x2="16.8411" y2="926.56983" xlink:href="#linear-gradient"/></defs><g id="BELUGA"><g class="cls-2"><image width="440" height="440" transform="translate(-81 -13) scale(0.18636)" xlink:href="../../../../../Downloads/image%2029.png"/></g></g><g id="SOLANA"><path id="Shape-6" d="M24.99543,50a25,25,0,1,1,.00915,0Z"/><path class="cls-3" d="M14.66314,31.31761a1.00195,1.00195,0,0,1,.70837-.29259H39.81039a.5005.5005,0,0,1,.35419.85467l-4.82772,4.82772A1.00195,1.00195,0,0,1,34.62849,37H10.1896a.50049.50049,0,0,1-.35418-.85467Z"/><path class="cls-4" d="M14.66314,13.29259A1.02959,1.02959,0,0,1,15.37151,13H39.8104a.50049.50049,0,0,1,.35418.85467l-4.82772,4.82772a1.00195,1.00195,0,0,1-.70837.29259H10.1896a.50049.50049,0,0,1-.35418-.85467Z"/><path class="cls-5" d="M35.33686,22.24735a1.00195,1.00195,0,0,0-.70837-.29259H10.1896a.50049.50049,0,0,0-.35418.85467l4.82772,4.82772a1.00195,1.00195,0,0,0,.70837.29259H39.81039a.5005.5005,0,0,0,.35419-.85467Z"/></g></svg>